HIERARCHY
ROOT Hips
{
 OFFSET 0.000000 0.000000 0.000000
 CHANNELS 6 Xposition Yposition Zposition Yrotation Xrotation Zrotation
 JOINT Chest
 {
  OFFSET 0.000000 9.857222 0.000240
  CHANNELS 3 Yrotation Xrotation Zrotation
  JOINT Chest2
  {
   OFFSET 0.000000 10.876940 -0.000436
   CHANNELS 3 Yrotation Xrotation Zrotation
   JOINT Chest3
   {
    OFFSET 0.000000 9.827798 0.000000
    CHANNELS 3 Yrotation Xrotation Zrotation
    JOINT Chest4
    {
     OFFSET 0.000000 9.827798 0.000000
     CHANNELS 3 Yrotation Xrotation Zrotation
     JOINT Neck
     {
      OFFSET 0.000000 13.831992 0.000000
      CHANNELS 3 Yrotation Xrotation Zrotation
      JOINT Head
      {
       OFFSET 0.000000 9.147643 -0.001036
       CHANNELS 3 Yrotation Xrotation Zrotation
       End Site
       {
        OFFSET 0.000000 17.515799 -0.000541
       }
      }
     }
     JOINT RightCollar
     {
      OFFSET -3.001579 7.717577 0.000000
      CHANNELS 3 Yrotation Xrotation Zrotation
      JOINT RightShoulder
      {
       OFFSET -14.002642 0.000000 0.000000
       CHANNELS 3 Yrotation Xrotation Zrotation
       JOINT RightElbow
       {
        OFFSET -30.053852 0.000000 0.000000
        CHANNELS 3 Yrotation Xrotation Zrotation
        JOINT RightWrist
        {
         OFFSET -24.564923 0.000000 -0.000000
         CHANNELS 3 Yrotation Xrotation Zrotation
         End Site
         {
          OFFSET -18.334355 0.000000 0.000000
         }
        }
       }
      }
     }
     JOINT LeftCollar
     {
      OFFSET 3.001579 7.717577 0.000000
      CHANNELS 3 Yrotation Xrotation Zrotation
      JOINT LeftShoulder
      {
       OFFSET 14.002642 0.000000 0.000000
       CHANNELS 3 Yrotation Xrotation Zrotation
       JOINT LeftElbow
       {
        OFFSET 30.053852 0.000000 0.000000
        CHANNELS 3 Yrotation Xrotation Zrotation
        JOINT LeftWrist
        {
         OFFSET 24.564923 0.000000 -0.000000
         CHANNELS 3 Yrotation Xrotation Zrotation
         End Site
         {
          OFFSET 18.334355 0.000000 0.000000
         }
        }
       }
      }
     }
    }
   }
  }
 }
 JOINT RightHip
 {
  OFFSET -8.003235 -0.001175 -0.000120
  CHANNELS 3 Yrotation Xrotation Zrotation
  JOINT RightKnee
  {
   OFFSET 0.000000 -41.759727 0.000113
   CHANNELS 3 Yrotation Xrotation Zrotation
   JOINT RightAnkle
   {
    OFFSET 0.000000 -40.728748 0.000159
    CHANNELS 3 Yrotation Xrotation Zrotation
    JOINT RightToe
    {
     OFFSET 0.000000 -6.515296 14.732841
     CHANNELS 3 Yrotation Xrotation Zrotation
     End Site
     {
      OFFSET 0.000000 -1.502839 6.412115
     }
    }
   }
  }
 }
 JOINT LeftHip
 {
  OFFSET 8.003235 -0.001175 -0.000120
  CHANNELS 3 Yrotation Xrotation Zrotation
  JOINT LeftKnee
  {
   OFFSET 0.000000 -41.759727 0.000113
   CHANNELS 3 Yrotation Xrotation Zrotation
   JOINT LeftAnkle
   {
    OFFSET 0.000000 -40.728748 0.000159
    CHANNELS 3 Yrotation Xrotation Zrotation
    JOINT LeftToe
    {
     OFFSET 0.000000 -6.515296 14.732841
     CHANNELS 3 Yrotation Xrotation Zrotation
     End Site
     {
      OFFSET 0.000000 -1.502839 6.412115
     }
    }
   }
  }
 }
}
MOTION
Frames: 16
Frame Time: 0.016667
12.222578 79.551945 -16.980209 -34.102088 8.173232 -4.523406 4.805670 2.471419 1.848130 2.052051 1.188864 0.912797 2.052051 1.188864 0.912797 1.537211 0.894727 0.680590 -7.329296 21.230700 -0.344628 -13.191500 3.503129 1.478844 17.643679 27.569443 17.302146 71.065265 2.856924 50.528930 48.213069 0.814409 -10.237603 -9.814395 2.673739 -20.786529 -34.213776 30.633062 -21.311798 -55.220861 -5.809344 -38.597148 -40.740505 17.634037 3.249649 2.694497 4.864063 23.800690 -14.911510 11.313502 -8.798364 -10.997982 6.789665 -9.432571 2.347293 -25.034735 14.839082 -0.312071 -1.052823 -0.052791 -22.894997 -43.798171 33.977899 15.955781 44.017197 -2.372535 -4.978558 -3.861794 -6.222524 0.048016 -0.515612 0.202129
12.223220 79.611470 -16.911710 -34.150971 8.184542 -4.539466 4.781934 2.479772 1.834172 2.059681 1.189373 0.900179 2.059681 1.189373 0.900179 1.542957 0.895078 0.671110 -7.333880 21.205811 -0.334604 -13.203923 3.458472 1.500606 17.612497 27.607359 17.287711 71.278420 2.930650 50.505282 48.256343 0.428283 -10.213087 -9.688836 2.654743 -20.598421 -34.279235 30.675561 -21.337630 -55.268137 -5.830931 -38.563259 -40.483227 17.646048 3.190695 2.690305 4.861109 23.762543 -14.829128 11.337529 -8.813828 -10.914083 6.755138 -9.362828 2.309434 -24.710114 14.733256 -0.296781 -1.121058 -0.010474 -22.700831 -43.673064 33.788905 15.698454 43.760833 -2.508557 -4.906935 -3.839569 -6.281433 0.047618 -0.390688 0.219143
12.218084 79.670028 -16.859817 -34.214305 8.194988 -4.551452 4.777597 2.475464 1.823944 2.061944 1.191616 0.885275 2.061944 1.191616 0.885275 1.544680 0.896713 0.659921 -7.330670 21.189275 -0.326366 -13.201296 3.428496 1.516163 17.583733 27.638745 17.272177 71.437487 2.949294 50.489255 48.204827 0.220788 -10.171918 -9.605294 2.647935 -20.362916 -34.331149 30.672561 -21.354682 -55.315772 -5.801343 -38.560572 -40.224525 17.631146 3.130661 2.683295 4.845826 23.702982 -14.665252 11.357872 -8.784230 -10.813622 6.740914 -9.323956 2.149241 -24.407103 14.617147 -0.248567 -1.155041 0.048138 -22.442983 -43.559924 33.571013 15.484303 43.482827 -2.578809 -4.791161 -3.809249 -6.355817 0.051018 -0.270517 0.224135
12.199878 79.723242 -16.837965 -34.281014 8.223387 -4.549381 4.785617 2.446063 1.807597 2.060167 1.193049 0.867123 2.060167 1.193049 0.867123 1.543380 0.897724 0.646306 -7.320541 21.180532 -0.319351 -13.185386 3.412288 1.526822 17.530775 27.689645 17.241194 71.535928 2.897769 50.447538 48.136941 0.108976 -10.091880 -9.589446 2.643826 -20.041421 -34.386689 30.662253 -21.375874 -55.342117 -5.746394 -38.554117 -40.009589 17.575043 3.061435 2.692084 4.843847 23.627118 -14.490028 11.347660 -8.725641 -10.711813 6.733820 -9.317075 1.984320 -24.180495 14.471814 -0.183987 -1.131733 0.115591 -22.147054 -43.479436 33.351074 15.550816 43.195543 -2.461492 -4.897766 -3.769773 -6.421551 0.057891 -0.155741 0.221935
12.166030 79.763231 -16.841999 -34.351491 8.279062 -4.534337 4.803848 2.401993 1.782717 2.053823 1.188914 0.845997 2.053823 1.188914 0.845997 1.538670 0.894542 0.630488 -7.301358 21.176978 -0.315715 -13.151827 3.404636 1.528336 17.453693 27.738366 17.182360 71.548785 2.758491 50.394050 48.119697 0.012544 -9.923982 -9.621995 2.606228 -19.700703 -34.442058 30.672411 -21.398612 -55.357080 -5.694532 -38.538404 -39.835081 17.500850 3.005044 2.747781 4.826082 23.562589 -14.319509 11.302295 -8.649346 -10.668121 6.730742 -9.322957 1.798559 -24.026514 14.338383 -0.124354 -1.048079 0.175542 -21.895191 -43.428719 33.204450 15.710275 42.939925 -2.324543 -5.052891 -3.724688 -6.482725 0.062989 -0.063392 0.213038
12.113829 79.783001 -16.869242 -34.403456 8.352714 -4.511506 4.832251 2.348259 1.753979 2.042688 1.182067 0.820232 2.042688 1.182067 0.820232 1.530378 0.889305 0.611209 -7.275592 21.174854 -0.313231 -13.105929 3.399013 1.525775 17.338185 27.764228 17.104381 71.500481 2.563132 50.348408 48.156837 -0.101800 -9.678476 -9.680228 2.513544 -19.295596 -34.505211 30.703637 -21.406034 -55.358519 -5.627132 -38.524764 -39.733534 17.326439 3.022063 2.790403 4.859142 23.443282 -14.201160 11.239941 -8.578712 -10.674687 6.716461 -9.329075 1.769469 -24.009730 14.163286 -0.042696 -0.905963 0.228230 -21.742420 -43.400598 33.157120 15.765251 42.737794 -2.313823 -5.049720 -3.673321 -6.526086 0.058829 0.003607 0.189615
12.061270 79.769236 -16.901939 -34.405751 8.424280 -4.460305 4.828662 2.307124 1.706676 2.025527 1.172047 0.795364 2.025527 1.172047 0.795364 1.517570 0.881685 0.592625 -7.243331 21.173809 -0.318697 -13.045903 3.394070 1.506915 17.210138 27.764941 17.003630 71.423415 2.364772 50.326442 48.254873 -0.232259 -9.476246 -9.721153 2.476036 -18.909066 -34.544941 30.727602 -21.406911 -55.337181 -5.524675 -38.550281 -39.768913 17.175121 3.111971 2.894929 4.923325 23.276186 -14.220676 11.190869 -8.563641 -10.631550 6.685334 -9.320233 1.756186 -24.109420 14.051053 -0.016202 -0.700627 0.227811 -21.797914 -43.371468 33.242166 15.813431 42.651517 -2.415667 -5.073280 -3.656903 -6.530577 0.052224 0.042357 0.159983
12.010963 79.716455 -16.948894 -34.378644 8.544188 -4.401152 4.819472 2.239289 1.652793 2.001721 1.158114 0.770117 2.001721 1.158114 0.770117 1.499783 0.871121 0.573781 -7.210265 21.167644 -0.327486 -12.983708 3.379260 1.482294 17.075346 27.709841 16.901668 71.331079 2.202698 50.331490 48.389660 -0.293711 -9.244898 -9.744791 2.444869 -18.565169 -34.549303 30.723687 -21.386530 -55.253252 -5.376033 -38.630273 -39.988872 17.173657 3.225825 3.110293 4.995564 23.071737 -14.325882 11.106255 -8.573878 -10.562289 6.648475 -9.311571 1.739427 -24.319020 14.037701 -0.024456 -0.444622 0.172773 -22.111881 -43.403388 33.536901 15.965614 42.723515 -2.531431 -4.948705 -3.652028 -6.529273 0.048386 0.051140 0.123706
11.954846 79.615177 -17.002648 -34.211820 8.619208 -4.328356 4.733174 2.229850 1.620158 1.963955 1.149778 0.742687 1.963955 1.149778 0.742687 1.471522 0.864732 0.553308 -7.185956 21.151121 -0.338489 -12.937251 3.345718 1.457091 16.924448 27.606882 16.804830 71.240876 2.099910 50.349210 48.577394 -0.303292 -9.039181 -9.732360 2.472658 -18.247661 -34.504580 30.687898 -21.333252 -55.060901 -5.248357 -38.782720 -40.440713 17.421382 3.342841 3.423131 5.047449 22.843652 -14.579473 11.092847 -8.605085 -10.551583 6.601558 -9.313622 1.786426 -24.681781 14.115589 -0.065545 -0.109485 0.065101 -22.785602 -43.403392 34.011160 16.211087 42.969352 -2.670408 -4.944491 -3.687197 -6.510076 0.049771 0.028605 0.086394
11.885735 79.463372 -17.051998 -34.021926 8.631599 -4.299987 4.681067 2.293896 1.649666 1.918217 1.150239 0.713415 1.918217 1.150239 0.713415 1.437274 0.864930 0.531439 -7.175376 21.116984 -0.346933 -12.917276 3.280865 1.442013 16.764063 27.448425 16.723712 71.147464 2.097303 50.358833 48.854703 -0.271242 -8.919652 -9.714784 2.536513 -18.018549 -34.398093 30.654812 -21.242447 -54.770589 -5.226842 -38.986823 -41.072499 18.008032 3.434892 3.789890 4.997340 22.695048 -14.838503 11.179208 -8.624709 -10.631654 6.539701 -9.295520 1.824286 -25.120938 14.289466 -0.118065 0.261772 -0.076650 -23.732984 -43.335688 34.735322 16.536639 43.436826 -2.828071 -5.028950 -3.811449 -6.515283 0.119921 -0.013233 0.063695
11.829685 79.262571 -17.106469 -33.677019 8.730868 -4.191803 4.494469 2.302310 1.621918 1.871302 1.157721 0.687329 1.871302 1.157721 0.687329 1.402129 0.870406 0.511940 -7.181427 21.068096 -0.353044 -12.928856 3.190183 1.437217 16.602778 27.249948 16.648956 71.006775 2.168595 50.370316 49.264731 -0.234840 -8.862798 -9.719066 2.588136 -17.961931 -34.226455 30.630443 -21.114450 -54.394999 -5.300749 -39.217190 -41.856566 18.612994 3.529057 4.075913 4.961851 22.671131 -15.246697 11.214958 -8.699836 -10.676895 6.493550 -9.270037 1.783643 -25.754223 14.556057 -0.228820 0.740882 -0.249100 -25.051473 -43.426760 35.579656 17.666008 44.109200 -2.472797 -5.356852 -3.830616 -6.414940 0.052879 -0.149890 -0.035825
11.741115 79.011918 -17.123725 -33.235655 8.640416 -4.119736 4.246069 2.501649 1.658866 1.824381 1.181621 0.673955 1.824381 1.181621 0.673955 1.366936 0.888238 0.501926 -7.203820 21.005400 -0.361611 -12.970060 3.074903 1.433914 16.455963 27.007326 16.558040 70.794714 2.307339 50.396193 49.802254 -0.245931 -8.871007 -9.738291 2.642474 -18.033272 -33.975500 30.536676 -20.934698 -53.946076 -5.396028 -39.471438 -42.791773 18.974001 3.640527 4.232916 5.114434 22.769557 -15.652957 11.500032 -8.769307 -10.745756 6.486434 -9.250100 1.643083 -26.480408 14.879913 -0.390538 1.213989 -0.421877 -26.466279 -43.397209 36.446630 19.213026 45.008925 -1.718722 -5.816029 -3.949103 -6.399137 0.066323 -0.271976 -0.107556
11.636189 78.725694 -17.112759 -32.761278 8.512499 -4.057563 3.985602 2.735710 1.711262 1.776735 1.222379 0.678538 1.776735 1.222379 0.678538 1.331146 0.918767 0.505335 -7.240361 20.934415 -0.380501 -13.034362 2.944266 1.416771 16.329974 26.709140 16.450168 70.517938 2.544142 50.468267 50.447072 -0.263244 -8.955140 -9.773967 2.677177 -18.185693 -33.679353 30.320338 -20.727217 -53.556955 -5.441205 -39.791203 -43.685953 19.271475 3.827356 4.348578 5.331075 22.911116 -16.058047 11.842735 -8.834217 -10.853910 6.526714 -9.280677 1.530586 -27.342674 15.245211 -0.626383 1.709630 -0.589093 -27.881494 -43.427711 37.320231 20.230382 46.065093 -1.272254 -6.127266 -4.133921 -6.345220 0.081547 -0.405925 -0.174532
11.524503 78.424790 -17.057444 -32.259506 8.349622 -4.013838 3.724239 3.000441 1.780311 1.735929 1.273835 0.699722 1.735929 1.273835 0.699722 1.300436 0.957374 0.521156 -7.296035 20.858170 -0.408154 -13.131123 2.804413 1.389785 16.249397 26.405802 16.372760 70.207325 2.876965 50.569959 51.178963 -0.333694 -9.178265 -9.833573 2.745179 -18.398134 -33.389539 30.040839 -20.525567 -53.219743 -5.576221 -40.148515 -44.439773 19.812764 3.955851 4.510426 5.497722 23.013198 -16.554366 12.195058 -8.902913 -10.999290 6.627774 -9.350589 1.413750 -28.154647 15.643507 -0.876931 2.110217 -0.724253 -29.188628 -43.519940 38.119034 21.144903 47.220849 -0.778112 -6.436610 -4.349386 -6.284083 0.098584 -0.542618 -0.230062
11.398476 78.128883 -16.959891 -31.736324 8.176158 -4.019362 3.471796 3.266438 1.895049 1.701472 1.326714 0.733658 1.701472 1.326714 0.733658 1.274456 0.997089 0.546529 -7.365959 20.784425 -0.445716 -13.250762 2.669225 1.348795 16.231777 26.146162 16.351968 69.868300 3.259131 50.715372 51.992480 -0.473772 -9.562846 -9.947395 2.820982 -18.755394 -33.190246 29.780687 -20.408390 -52.833221 -5.844106 -40.474985 -45.111487 20.599835 4.002822 4.692370 5.628897 22.989624 -17.174510 12.524365 -8.975059 -11.145306 6.817326 -9.426351 1.370669 -28.892179 16.032048 -1.091317 2.382312 -0.826548 -30.473589 -43.614036 38.912836 21.805428 48.416069 -0.393356 -6.504494 -4.589286 -6.243151 0.112546 -0.659798 -0.265182
11.231592 77.855286 -16.806662 -31.285317 7.914934 -4.085451 3.292884 3.545399 2.061245 1.675250 1.397570 0.777315 1.675250 1.397570 0.777315 1.254599 1.050319 0.579131 -7.439169 20.716333 -0.489187 -13.374372 2.544124 1.297607 16.228008 25.986909 16.322749 69.523481 3.608436 50.859520 52.891857 -0.708376 -10.037084 -10.151908 2.935705 -19.166048 -33.067297 29.558097 -20.386883 -52.355119 -6.138584 -40.713813 -45.897214 21.453384 3.941872 4.907225 5.753807 22.919027 -17.761838 12.899948 -9.048356 -11.333475 7.118760 -9.499970 1.430579 -29.535318 16.320749 -1.258640 2.510007 -0.859504 -31.672955 -43.604634 39.668707 22.399612 49.681263 0.031175 -6.652267 -4.916674 -6.248464 0.130512 -0.775556 -0.285155
